<svg width="55" height="33" viewBox="0 0 55 33" fill="none" xmlns="http://www.w3.org/2000/svg">
<path fill-rule="evenodd" clip-rule="evenodd" d="M33.7634 16.6397C31.9656 17.9784 29.931 19.0547 27.7099 19.8002L25.534 20.531L26.8737 18.7066C30.7588 13.4151 32.8774 7.21081 33.0225 0.719726H21.4631C21.4065 2.35059 21.1578 3.93473 20.7383 5.45126V0.00390625H33.7634V16.6397ZM41.4766 25.0487C48.7906 19.2803 53.5375 10.534 53.7583 0.719726H42.1989C42.1424 2.33452 41.8957 3.91344 41.4766 5.43199V0.00390625H54.5009V32.3988H41.4766V25.0487ZM21.4741 29.4852V24.4952L20.7383 25.0553V29.4852H21.4741Z" fill="white"/>
<path fill-rule="evenodd" clip-rule="evenodd" d="M54.4971 0H41.4731C41.4731 8.85147 35.6063 16.3878 27.4667 19.1195C31.4274 13.7263 33.7613 7.12415 33.7613 0H20.7369C20.7369 11.1485 11.4342 20.2188 0 20.2188V32.9177C7.81058 32.9177 15.0097 30.3174 20.7358 25.9594V32.9177C39.3522 32.9177 54.4971 18.1509 54.4971 0ZM52.995 1.43228C52.2466 17.6564 38.8447 30.7235 22.2048 31.4532V25.9594V23.0243L19.832 24.83C14.4989 28.8891 8.17783 31.1642 1.46898 31.4539V21.6042C12.5466 20.8959 21.4314 12.2331 22.1578 1.43228H32.2592C31.9801 7.51265 29.9246 13.312 26.2724 18.2856L23.593 21.9347L27.9448 20.4737C36.4484 17.6199 42.3071 10.0772 42.8936 1.43228H52.995Z" fill="white"/>
</svg>
