<svg width="148" height="34" viewBox="0 0 148 34" fill="none" xmlns="http://www.w3.org/2000/svg">
<path fill-rule="evenodd" clip-rule="evenodd" d="M33.7634 16.6446C31.9656 17.9833 29.931 19.0596 27.7099 19.8051L25.534 20.5359L26.8737 18.7115C30.7588 13.42 32.8774 7.21569 33.0225 0.724609H21.4631C21.4065 2.35547 21.1578 3.93961 20.7383 5.45614V0.00878906H33.7634V16.6446ZM41.4766 25.0536C48.7906 19.2852 53.5375 10.5389 53.7583 0.724609H42.1989C42.1424 2.3394 41.8957 3.91832 41.4766 5.43687V0.00878906H54.5009V32.4037H41.4766V25.0536ZM21.4741 29.4901V24.5001L20.7383 25.0602V29.4901H21.4741Z" fill="white"/>
<path fill-rule="evenodd" clip-rule="evenodd" d="M54.4971 0.00463867H41.4731C41.4731 8.85611 35.6063 16.3924 27.4667 19.1241C31.4274 13.7309 33.7613 7.12879 33.7613 0.00463867H20.7369C20.7369 11.1531 11.4342 20.2234 0 20.2234V32.9223C7.81058 32.9223 15.0097 30.322 20.7358 25.964V32.9223C39.3522 32.9223 54.4971 18.1555 54.4971 0.00463867ZM52.995 1.43692C52.2466 17.661 38.8447 30.7281 22.2048 31.4578V25.964V23.0289L19.832 24.8346C14.4989 28.8937 8.17783 31.1688 1.46898 31.4585V21.6088C12.5466 20.9005 21.4314 12.2377 22.1578 1.43692H32.2592C31.9801 7.51729 29.9246 13.3166 26.2724 18.2902L23.593 21.9393L27.9448 20.4783C36.4484 17.6245 42.3071 10.0818 42.8936 1.43692H52.995Z" fill="white"/>
<path d="M63.5352 12.3163V4.65552H65.0653L67.281 9.56816H67.7576L69.9733 4.65552H71.5034V12.3163H70.553V5.75075V5.64094H70.5335L68.3791 10.4553H66.6372L64.4967 5.64094H64.4744V5.75075V12.3163H63.5352Z" fill="white"/>
<path d="M74.0059 11.5869C73.709 11.3363 73.4754 11.0371 73.3194 10.7074C73.1634 10.3777 73.0883 10.0245 73.0986 9.66932C73.0969 9.31425 73.1777 8.96239 73.3362 8.6338C73.4948 8.30522 73.7281 8.00635 74.0229 7.75427C74.3176 7.50219 74.668 7.30182 75.054 7.16462C75.44 7.02741 75.854 6.95605 76.2725 6.95461C76.691 6.95317 77.1058 7.02168 77.4931 7.15623C77.8804 7.29078 78.2326 7.48872 78.5298 7.73877C78.8269 7.98882 79.0631 8.28607 79.2248 8.61356C79.3865 8.94104 79.4706 9.29234 79.4723 9.6474C79.4564 10.177 79.2599 10.6913 78.9066 11.1281C78.5532 11.5648 78.0581 11.9053 77.4814 12.1082C76.9046 12.3111 76.2708 12.3678 75.6568 12.2714C75.0428 12.175 74.475 11.9296 74.022 11.565L74.0059 11.5869ZM74.7001 8.27772C74.4942 8.45949 74.3331 8.67422 74.2261 8.90938C74.1191 9.14454 74.0684 9.39543 74.0769 9.6474C74.0697 9.89924 74.121 10.1498 74.2279 10.3848C74.3348 10.6199 74.4953 10.8347 74.7001 11.0171C75.1249 11.3615 75.6898 11.5537 76.2774 11.5537C76.8649 11.5537 77.4299 11.3615 77.8547 11.0171C78.0608 10.8355 78.2221 10.6208 78.3291 10.3856C78.4361 10.1504 78.4867 9.89941 78.4778 9.6474C78.4875 9.39555 78.4376 9.1446 78.3311 8.90936C78.2247 8.67412 78.0638 8.45935 77.8579 8.27772C77.4358 7.92884 76.8699 7.73359 76.2806 7.73359C75.6913 7.73359 75.1254 7.92884 74.7033 8.27772H74.7001Z" fill="white"/>
<path d="M81.0782 11.563C80.8089 11.3073 80.5986 11.0045 80.4599 10.6726C80.3213 10.3407 80.2572 9.98656 80.2715 9.63142C80.2609 9.27948 80.3273 8.92917 80.4669 8.60116C80.6065 8.27315 80.8164 7.9741 81.0842 7.72167C81.3639 7.46665 81.6979 7.26711 82.0654 7.13546C82.4328 7.00382 82.826 6.94288 83.2202 6.95644C83.6145 6.97001 84.0015 7.05778 84.3572 7.2143C84.7129 7.37082 85.0296 7.59274 85.2877 7.86626C85.519 8.13252 85.6919 8.43733 85.7967 8.76384H84.9036C84.8155 8.57233 84.6893 8.39748 84.5315 8.24821C84.3455 8.07499 84.1221 7.93938 83.8754 7.8501C83.6288 7.76083 83.3645 7.71986 83.0996 7.72985C82.8419 7.72486 82.5861 7.77105 82.3497 7.86524C82.1133 7.95942 81.902 8.09938 81.7302 8.27549C81.3565 8.64288 81.1536 9.12924 81.1646 9.63142C81.1486 10.1368 81.352 10.6274 81.7302 10.9955C81.9008 11.1686 82.1094 11.3066 82.3424 11.4007C82.5753 11.4947 82.8272 11.5426 83.0817 11.5412C83.3602 11.5538 83.6383 11.5094 83.8958 11.4112C84.1532 11.3131 84.3836 11.1636 84.5702 10.9737C84.7381 10.8098 84.8687 10.6169 84.9542 10.4062H85.8473C85.693 10.9653 85.3351 11.4593 84.8327 11.8066C84.3304 12.1539 83.7137 12.3336 83.0847 12.316C82.7115 12.3255 82.3402 12.2635 81.9946 12.1338C81.6491 12.0041 81.337 11.8097 81.0782 11.563Z" fill="white"/>
<path d="M86.6445 12.3143V6.95459H87.6254V9.09962H88.8645L90.8459 6.95459H92.036L89.7473 9.47316L92.2224 12.303H90.9832L88.8743 9.90613H87.6352V12.3172L86.6445 12.3143Z" fill="white"/>
<path d="M93.0169 11.5754C92.7569 11.3291 92.5525 11.0349 92.4161 10.7109C92.2798 10.3868 92.2145 10.0397 92.2241 9.69088C92.2122 9.3357 92.2755 8.98188 92.4102 8.65042C92.5449 8.31897 92.7483 8.01664 93.0083 7.7614C93.2684 7.50615 93.5797 7.30321 93.9238 7.16461C94.2679 7.02601 94.6378 6.95459 95.0116 6.95459C95.3853 6.95459 95.7552 7.02601 96.0993 7.16461C96.4434 7.30321 96.7548 7.50615 97.0148 7.7614C97.2748 8.01664 97.4782 8.31897 97.6129 8.65042C97.7477 8.98188 97.811 9.3357 97.7991 9.69088C97.7856 10.2119 97.6135 10.718 97.3035 11.1477C96.9934 11.5775 96.5589 11.9125 96.0526 12.112C95.5462 12.3116 94.9899 12.3671 94.451 12.2718C93.9121 12.1766 93.4139 11.9346 93.0169 11.5754ZM93.6284 8.32325C93.4474 8.50153 93.3058 8.7125 93.2119 8.9437C93.1181 9.1749 93.0739 9.42163 93.082 9.66934C93.0742 9.91701 93.1185 10.1637 93.2124 10.3948C93.3062 10.626 93.4477 10.837 93.6284 11.0154C94.0009 11.3539 94.4963 11.5428 95.0116 11.5428C95.5268 11.5428 96.0222 11.3539 96.3947 11.0154C96.5743 10.8362 96.715 10.625 96.8088 10.3941C96.9025 10.1631 96.9475 9.91684 96.9412 9.66934C96.9486 9.42171 96.9041 9.17514 96.8103 8.94403C96.7165 8.71291 96.5752 8.50188 96.3947 8.32325C96.0246 7.98037 95.5283 7.78849 95.0116 7.78849C94.4948 7.78849 93.9985 7.98037 93.6284 8.32325Z" fill="white"/>
<path d="M99.3906 12.3164V6.95718H102.212C102.67 6.93395 103.121 7.06785 103.48 7.33351C103.629 7.45261 103.747 7.60097 103.826 7.76785C103.906 7.93473 103.944 8.11596 103.939 8.29841C103.941 8.46351 103.914 8.62781 103.86 8.7851C103.818 8.90973 103.751 9.02587 103.662 9.12748C103.591 9.20578 103.508 9.27436 103.416 9.33121C103.348 9.3756 103.275 9.41174 103.197 9.43873C103.158 9.45216 103.117 9.46073 103.076 9.4642C103.122 9.46801 103.168 9.47752 103.212 9.4925C103.308 9.52028 103.398 9.55927 103.483 9.60851C103.597 9.67189 103.704 9.74583 103.802 9.82922C103.916 9.93541 104.004 10.0627 104.061 10.2027C104.135 10.3773 104.173 10.5638 104.17 10.7517C104.18 10.964 104.139 11.1757 104.05 11.3715C103.961 11.5673 103.827 11.7422 103.656 11.8835C103.254 12.1894 102.743 12.343 102.224 12.3136L99.3906 12.3164ZM100.303 9.15577H102.145C102.72 9.15577 103.009 8.92375 103.009 8.45686C103.009 7.98998 102.72 7.76078 102.145 7.76078H100.303V9.15577ZM100.303 11.5128H102.203C102.48 11.53 102.754 11.4537 102.975 11.2978C103.064 11.2242 103.133 11.1332 103.179 11.0313C103.225 10.9295 103.246 10.8195 103.24 10.7092C103.246 10.5985 103.225 10.488 103.179 10.3857C103.134 10.2834 103.064 10.1919 102.975 10.1178C102.754 9.96297 102.479 9.88763 102.203 9.90562H100.303V11.5128Z" fill="white"/>
<path d="M105.778 11.5342C105.511 11.2819 105.302 10.9832 105.164 10.6557C105.025 10.3283 104.959 9.97864 104.97 9.62746C104.959 9.27624 105.025 8.92654 105.163 8.59903C105.302 8.27152 105.511 7.97285 105.778 7.72067C106.057 7.46597 106.39 7.2667 106.757 7.13523C107.124 7.00376 107.516 6.9429 107.91 6.95644C108.303 6.96998 108.69 7.05763 109.045 7.21394C109.4 7.37024 109.716 7.59187 109.973 7.86504C110.204 8.13038 110.376 8.43493 110.478 8.76123H109.587C109.5 8.56955 109.374 8.39482 109.216 8.2464C109.031 8.07317 108.808 7.93758 108.562 7.84843C108.316 7.75927 108.052 7.71852 107.788 7.72884C107.531 7.72386 107.276 7.76997 107.04 7.86401C106.804 7.95805 106.593 8.09779 106.422 8.27364C106.056 8.64608 105.861 9.13425 105.879 9.63563C105.862 10.1399 106.064 10.6296 106.44 10.9976C106.61 11.1703 106.818 11.308 107.051 11.4019C107.283 11.4958 107.534 11.5437 107.788 11.5424C108.066 11.5552 108.343 11.511 108.6 11.4129C108.857 11.3149 109.087 11.1656 109.273 10.9758C109.442 10.8136 109.573 10.6206 109.656 10.4092H110.547C110.45 10.7585 110.273 11.0852 110.03 11.3681C109.762 11.6743 109.421 11.9193 109.032 12.0837C108.643 12.2482 108.219 12.3278 107.791 12.316C107.414 12.3233 107.04 12.2574 106.693 12.1226C106.346 11.9879 106.034 11.7874 105.778 11.5342Z" fill="white"/>
<path d="M111.344 12.3143V6.95459H112.327V9.09962H113.566L115.552 6.95459H116.732L114.437 9.47316L116.922 12.303H115.68L113.576 9.90613H112.337V12.3172L111.344 12.3143Z" fill="white"/>
<path d="M117.719 12.3172V6.95459H118.579V10.9751V11.0827H118.599L121.522 6.95459H122.5V12.3172H121.639V8.29665V8.18906H121.616L118.697 12.3172H117.719Z" fill="white"/>
<path d="M124.094 12.3163V6.84309H124.955V10.9466V11.0564H124.975L127.896 6.84309H128.875V12.3163H128.014V8.21285V8.10303H127.991L125.069 12.3163H124.094ZM124.874 4.65552H125.681C125.678 4.74548 125.695 4.83498 125.73 4.91748C125.766 4.99997 125.82 5.07338 125.887 5.13233C126.062 5.2631 126.278 5.32664 126.496 5.3115C126.717 5.33 126.938 5.26627 127.116 5.13233C127.183 5.07311 127.236 4.99957 127.271 4.91709C127.306 4.83461 127.323 4.74525 127.319 4.65552H128.134C128.138 4.84283 128.1 5.02861 128.023 5.19917C127.946 5.36972 127.832 5.52069 127.69 5.64094C127.351 5.91194 126.925 6.04774 126.493 6.02239C126.062 6.04702 125.637 5.91126 125.299 5.64094C125.16 5.51861 125.05 5.36675 124.977 5.19633C124.903 5.02592 124.868 4.84119 124.874 4.65552V4.65552Z" fill="white"/>
<path d="M63.5352 21.5098V16.1472H64.3966V20.1699V20.2775H64.4196L67.3398 16.1472H68.3161V21.5098H67.4547V17.4872V17.3795H67.4346L64.5143 21.5098H63.5352Z" fill="white"/>
<path d="M69.9102 21.5098V16.1472H70.7737V18.3455H73.8276V16.1472H74.6911V21.5098H73.8276V19.15H70.7823V21.5098H69.9102Z" fill="white"/>
<path d="M76.2852 21.5098V16.1472H77.1492V18.3455H80.2021V16.1472H81.0662V21.5098H80.2021V19.15H77.1492V21.5098H76.2852Z" fill="white"/>
<path d="M83.4544 20.768C83.1948 20.5214 82.9906 20.2272 82.8543 19.9032C82.7181 19.5792 82.6525 19.2323 82.6616 18.8835C82.6497 18.5283 82.713 18.1745 82.8477 17.8431C82.9824 17.5116 83.1858 17.2093 83.4458 16.954C83.7059 16.6988 84.0172 16.4958 84.3613 16.3572C84.7054 16.2186 85.0753 16.1472 85.4491 16.1472C85.8228 16.1472 86.1927 16.2186 86.5368 16.3572C86.8809 16.4958 87.1922 16.6988 87.4523 16.954C87.7123 17.2093 87.9157 17.5116 88.0504 17.8431C88.1852 18.1745 88.2484 18.5283 88.2365 18.8835C88.2231 19.4045 88.051 19.9106 87.7409 20.3404C87.4309 20.7701 86.9964 21.1051 86.4901 21.3047C85.9837 21.5042 85.4274 21.5597 84.8885 21.4644C84.3496 21.3692 83.8514 21.1273 83.4544 20.768ZM84.0659 17.5159C83.8846 17.694 83.7428 17.9049 83.649 18.1362C83.5551 18.3674 83.511 18.6142 83.5195 18.862C83.5112 19.1097 83.5553 19.3565 83.6492 19.5877C83.743 19.8189 83.8848 20.0299 84.0659 20.2081C84.436 20.5509 84.9323 20.7428 85.4491 20.7428C85.9658 20.7428 86.4621 20.5509 86.8322 20.2081C87.0133 20.0299 87.1551 19.8189 87.2489 19.5877C87.3428 19.3565 87.3869 19.1097 87.3786 18.862C87.3871 18.6142 87.343 18.3674 87.2492 18.1362C87.1553 17.9049 87.0135 17.694 86.8322 17.5159C86.4621 17.173 85.9658 16.9811 85.4491 16.9811C84.9323 16.9811 84.436 17.173 84.0659 17.5159Z" fill="white"/>
<path d="M89.8281 21.5098V16.1502H92.6557C93.1147 16.1253 93.5676 16.2584 93.9276 16.5239C94.077 16.6428 94.1959 16.7912 94.2756 16.9582C94.3553 17.1253 94.3938 17.3067 94.3882 17.4894C94.39 17.6546 94.3632 17.819 94.3089 17.9763C94.2372 18.2028 94.0788 18.3971 93.8636 18.5228C93.7956 18.5672 93.7218 18.6034 93.6439 18.6304C93.6051 18.6457 93.564 18.6553 93.5219 18.6587C93.5695 18.6627 93.6165 18.6712 93.6622 18.6842C93.758 18.7125 93.8493 18.7525 93.9337 18.8031C94.0431 18.8659 94.1453 18.939 94.2387 19.0211C94.3528 19.1282 94.4412 19.2566 94.498 19.3976C94.5732 19.5713 94.6105 19.757 94.6078 19.9441C94.6171 20.1562 94.5761 20.3676 94.4875 20.5633C94.399 20.7591 94.2651 20.9343 94.0954 21.0766C93.6901 21.3814 93.1763 21.534 92.6557 21.5041L89.8281 21.5098ZM90.7432 18.3472H92.5886C93.1681 18.3472 93.4548 18.1151 93.4548 17.6507C93.4548 17.1864 93.1773 16.9627 92.5977 16.9627H90.7523L90.7432 18.3472ZM90.7432 20.7057H92.6465C92.9244 20.7242 93.2 20.6477 93.4213 20.4905C93.5054 20.4136 93.5722 20.3219 93.6178 20.2208C93.6634 20.1197 93.6868 20.0112 93.6868 19.9016C93.6868 19.792 93.6634 19.6835 93.6178 19.5824C93.5722 19.4813 93.5054 19.3896 93.4213 19.3127C93.2 19.1556 92.9244 19.079 92.6465 19.0975H90.7432V20.7057Z" fill="white"/>
<path d="M96.1922 20.746C95.668 20.2284 95.386 19.5408 95.4074 18.8325C95.3857 18.1242 95.6678 17.4365 96.1922 16.919C96.4323 16.6725 96.7267 16.4763 97.0556 16.3433C97.3845 16.2104 97.7404 16.1438 98.0995 16.1482C98.5108 16.1371 98.9185 16.2227 99.2841 16.3969C99.563 16.5269 99.8061 16.7138 99.9949 16.9436L100.096 17.0967V16.2384H100.984V21.413H100.096V20.5766L99.9949 20.7214C99.8121 20.9466 99.5748 21.1291 99.3019 21.2545C98.9282 21.4332 98.5113 21.5207 98.0906 21.5087C97.7337 21.5129 97.3799 21.4471 97.0527 21.3156C96.7254 21.1841 96.4321 20.99 96.1922 20.746ZM96.8586 17.4493C96.4924 17.8227 96.298 18.3129 96.3166 18.8161C96.2984 19.3194 96.4927 19.8095 96.8586 20.1829C97.0347 20.353 97.2464 20.4884 97.4808 20.5809C97.7152 20.6734 97.9675 20.7211 98.2224 20.7211C98.4773 20.7211 98.7296 20.6734 98.964 20.5809C99.1984 20.4884 99.4101 20.353 99.5862 20.1829C99.9521 19.8095 100.146 19.3194 100.128 18.8161C100.147 18.3129 99.9524 17.8227 99.5862 17.4493C99.4101 17.2792 99.1984 17.1439 98.964 17.0514C98.7296 16.9589 98.4773 16.9112 98.2224 16.9112C97.9675 16.9112 97.7152 16.9589 97.4808 17.0514C97.2464 17.1439 97.0347 17.2792 96.8586 17.4493Z" fill="white"/>
<path d="M102.582 21.7536V16.1472H103.487V20.9125H106.456V16.1472H107.361V20.9125H108.16V23.042H107.255V21.7536H102.582Z" fill="white"/>
<path d="M108.953 21.5098V16.1472H109.814V20.1699V20.2775H109.834L112.756 16.1472H113.734V21.5098H112.874V17.4872V17.3795H112.854L109.931 21.5098H108.953Z" fill="white"/>
<path d="M116.122 20.768C115.863 20.5214 115.659 20.2272 115.522 19.9032C115.386 19.5792 115.32 19.2323 115.33 18.8835C115.318 18.5283 115.381 18.1745 115.516 17.8431C115.65 17.5116 115.854 17.2093 116.114 16.954C116.374 16.6988 116.685 16.4958 117.029 16.3572C117.373 16.2186 117.743 16.1472 118.117 16.1472C118.491 16.1472 118.861 16.2186 119.205 16.3572C119.549 16.4958 119.86 16.6988 120.12 16.954C120.38 17.2093 120.584 17.5116 120.718 17.8431C120.853 18.1745 120.916 18.5283 120.905 18.8835C120.891 19.4045 120.719 19.9106 120.409 20.3404C120.099 20.7701 119.664 21.1051 119.158 21.3047C118.652 21.5042 118.095 21.5597 117.556 21.4644C117.018 21.3692 116.519 21.1273 116.122 20.768ZM116.734 17.5159C116.553 17.694 116.411 17.9049 116.317 18.1362C116.223 18.3674 116.179 18.6142 116.187 18.862C116.179 19.1097 116.223 19.3565 116.317 19.5877C116.411 19.8189 116.553 20.0299 116.734 20.2081C117.104 20.5509 117.6 20.7428 118.117 20.7428C118.634 20.7428 119.13 20.5509 119.5 20.2081C119.681 20.0299 119.823 19.8189 119.917 19.5877C120.011 19.3565 120.055 19.1097 120.047 18.862C120.055 18.6142 120.011 18.3674 119.917 18.1362C119.823 17.9049 119.681 17.694 119.5 17.5159C119.13 17.173 118.634 16.9811 118.117 16.9811C117.6 16.9811 117.104 17.173 116.734 17.5159Z" fill="white"/>
<path d="M122.5 21.5098V16.1472H123.364V18.3455H126.417V16.1472H127.281V21.5098H126.417V19.15H123.372V21.5098H122.5Z" fill="white"/>
<path d="M128.875 21.5098V16.1472H129.739V18.3455H132.792V16.1472H133.656V21.5098H132.792V19.15H129.739V21.5098H128.875Z" fill="white"/>
<path d="M135.25 21.508V16.1472H136.197V17.9681H137.629C138.228 17.9458 138.813 18.1279 139.267 18.4778C139.467 18.6354 139.626 18.8293 139.736 19.0466C139.845 19.2639 139.902 19.4996 139.902 19.738C139.902 19.9765 139.845 20.2122 139.736 20.4294C139.626 20.6467 139.467 20.8406 139.267 20.9982C138.813 21.3481 138.228 21.5303 137.629 21.508H135.25ZM136.197 20.7037H137.629C137.978 20.7238 138.323 20.6281 138.598 20.4347C138.708 20.347 138.795 20.2397 138.855 20.1196C138.915 19.9996 138.946 19.8695 138.946 19.738C138.946 19.6065 138.915 19.4765 138.855 19.3565C138.795 19.2364 138.708 19.129 138.598 19.0414C138.324 18.8444 137.98 18.7437 137.629 18.7582H136.197V20.7037ZM140.678 21.508V16.1472H141.625V21.508H140.678Z" fill="white"/>
<path d="M143.219 21.5107V16.0403H144.079V20.1438V20.2536H144.099L147.022 16.0403H148V21.5107H147.139V17.4072V17.2974H147.116L144.194 21.5107H143.219ZM144.002 13.8499H144.816C144.813 13.9399 144.83 14.0295 144.865 14.1121C144.901 14.1946 144.955 14.268 145.023 14.3267C145.204 14.4455 145.415 14.5088 145.631 14.5088C145.847 14.5088 146.058 14.4455 146.239 14.3267C146.307 14.268 146.36 14.1946 146.396 14.1121C146.432 14.0295 146.449 13.9399 146.445 13.8499H147.26C147.267 14.0385 147.231 14.2262 147.156 14.3989C147.08 14.5716 146.967 14.7248 146.824 14.8468C146.475 15.0967 146.057 15.2309 145.629 15.2309C145.201 15.2309 144.784 15.0967 144.435 14.8468C144.293 14.7244 144.18 14.5711 144.105 14.3984C144.03 14.2257 143.995 14.0382 144.002 13.8499Z" fill="white"/>
<path d="M63.5352 30.7041V25.3416H64.3784V27.4877H65.4436L67.1469 25.3416H68.1559L66.1884 27.8615L68.3161 30.6928H67.2593L65.4492 28.2805H64.384V30.6928L63.5352 30.7041Z" fill="white"/>
<path d="M68.3164 30.7041L69.9058 25.3416H72.3048L73.8942 30.7041H72.9166L71.6091 26.1457H70.5865L69.282 30.7041H68.3164Z" fill="white"/>
<path d="M75.4709 29.9333C74.9684 29.4041 74.6914 28.7253 74.6914 28.0226C74.6914 27.32 74.9684 26.6412 75.4709 26.112C75.7109 25.866 76.0053 25.67 76.3344 25.5372C76.6635 25.4045 77.0196 25.338 77.3789 25.3423C77.7909 25.3327 78.199 25.418 78.5659 25.5907C78.8436 25.7229 79.0866 25.9092 79.2781 26.1366L79.379 26.2921V25.4324H80.2692V30.602H79.379V29.7832L79.2781 29.9278C79.0977 30.1477 78.8654 30.3269 78.5985 30.4519C78.2237 30.6288 77.806 30.7152 77.3849 30.703C77.0246 30.7081 76.6673 30.642 76.3371 30.5092C76.0069 30.3764 75.7115 30.18 75.4709 29.9333ZM76.1267 26.6415C75.7761 27.0274 75.5841 27.5143 75.5841 28.0172C75.5841 28.5201 75.7761 29.007 76.1267 29.3928C76.3034 29.5619 76.5153 29.6964 76.7499 29.7883C76.9844 29.8802 77.2368 29.9276 77.4917 29.9276C77.7467 29.9276 77.999 29.8802 78.2335 29.7883C78.4681 29.6964 78.6801 29.5619 78.8567 29.3928C79.2095 29.0079 79.403 28.5206 79.403 28.0172C79.403 27.5137 79.2095 27.0265 78.8567 26.6415C78.6805 26.4717 78.4687 26.3366 78.234 26.2443C77.9994 26.152 77.7469 26.1044 77.4917 26.1044C77.2365 26.1044 76.984 26.152 76.7494 26.2443C76.5148 26.3366 76.3029 26.4717 76.1267 26.6415Z" fill="white"/>
<path d="M82.6769 29.9385C82.1535 29.415 81.8633 28.7316 81.8633 28.0226C81.8633 27.3136 82.1535 26.6303 82.6769 26.1067C82.9569 25.8523 83.2911 25.6533 83.6589 25.522C84.0267 25.3907 84.4201 25.3299 84.8147 25.3434C85.2094 25.3569 85.5967 25.4445 85.9527 25.6006C86.3086 25.7568 86.6256 25.9781 86.8839 26.251C87.1165 26.5159 87.2897 26.8202 87.3934 27.1463H86.4996C86.41 26.9507 86.2806 26.7725 86.1182 26.6211C85.9321 26.4483 85.7084 26.313 85.4616 26.224C85.2147 26.1349 84.9502 26.094 84.6851 26.104C84.4272 26.099 84.1711 26.1451 83.9345 26.239C83.698 26.333 83.4864 26.4726 83.3145 26.6483C82.9448 27.0194 82.7481 27.5075 82.7663 28.009C82.7503 28.5131 82.9539 29.0025 83.3324 29.3697C83.5032 29.5423 83.712 29.6801 83.9451 29.7738C84.1782 29.8676 84.4304 29.9154 84.6851 29.914C84.9638 29.9266 85.2421 29.8823 85.4998 29.7844C85.7575 29.6865 85.9881 29.5374 86.1748 29.3479C86.3385 29.1897 86.4652 29.0026 86.5472 28.7982H87.4411C87.3437 29.1472 87.1671 29.4736 86.9227 29.7562C86.6549 30.0609 86.3136 30.305 85.9254 30.4693C85.5372 30.6336 85.1127 30.7137 84.6851 30.7032C84.3104 30.711 83.9382 30.647 83.5923 30.5152C83.2464 30.3835 82.9346 30.1871 82.6769 29.9385Z" fill="white"/>
<path d="M87.4375 26.1457V25.3416H92.2185V26.1457H90.2726V30.7041H89.3922V26.1457H87.4375Z" fill="white"/>
<path d="M93.8165 29.9386C93.3042 29.4174 93.0195 28.7332 93.0195 28.0228C93.0195 27.3124 93.3042 26.6282 93.8165 26.107C94.0742 25.8571 94.3841 25.6601 94.7266 25.5285C95.069 25.3969 95.4367 25.3336 95.8064 25.3424C96.1761 25.3345 96.5436 25.3975 96.8866 25.5275C97.2296 25.6575 97.541 25.8518 97.8019 26.0987C98.0628 26.3455 98.2678 26.6397 98.4044 26.9635C98.5409 27.2872 98.6062 27.6337 98.5964 27.982V28.2813H93.8974C93.942 28.7352 94.1644 29.1572 94.5212 29.4651C94.8699 29.772 95.3323 29.9381 95.8093 29.9277C96.317 29.9394 96.8114 29.7748 97.1985 29.4651C97.367 29.3371 97.5081 29.1801 97.6144 29.0025H98.4808C98.2784 29.513 97.9119 29.9512 97.4325 30.2561C96.9531 30.561 96.3846 30.7173 95.8064 30.7033C95.4367 30.7122 95.0689 30.6489 94.7265 30.5173C94.384 30.3857 94.0741 30.1886 93.8165 29.9386ZM93.9147 27.5602H97.6693C97.6088 27.1618 97.3975 26.7974 97.0743 26.5343C96.7252 26.2507 96.2758 26.1011 95.8151 26.1152C95.3521 26.103 94.9006 26.2522 94.5472 26.5343C94.2123 26.7935 93.9878 27.1577 93.9147 27.5602Z" fill="white"/>
<path d="M100.188 33.0024V25.4612H101.075V26.327L101.188 26.1625C101.369 25.9296 101.603 25.7409 101.871 25.6112C102.245 25.4218 102.661 25.3294 103.082 25.3428C103.441 25.3384 103.796 25.4088 104.125 25.5491C104.454 25.6895 104.748 25.8966 104.988 26.1567C105.489 26.7162 105.765 27.434 105.765 28.1769C105.765 28.9199 105.489 29.6376 104.988 30.1971C104.595 30.6006 104.08 30.8713 103.519 30.97C102.957 31.0686 102.378 30.9899 101.866 30.7455C101.594 30.6183 101.36 30.4243 101.188 30.1827L101.075 30.0298V33.0024H100.188ZM101.629 26.7397C101.277 27.1467 101.084 27.6619 101.084 28.1942C101.084 28.7266 101.277 29.2418 101.629 29.6488C101.805 29.8276 102.016 29.9698 102.25 30.067C102.484 30.1641 102.736 30.2142 102.99 30.2142C103.244 30.2142 103.496 30.1641 103.73 30.067C103.964 29.9698 104.175 29.8276 104.352 29.6488C104.703 29.2418 104.896 28.7266 104.896 28.1942C104.896 27.6619 104.703 27.1467 104.352 26.7397C104.176 26.5602 103.965 26.4173 103.731 26.3197C103.497 26.222 103.245 26.1717 102.99 26.1717C102.736 26.1717 102.484 26.222 102.25 26.3197C102.016 26.4173 101.805 26.5602 101.629 26.7397Z" fill="white"/>
</svg>
